<mxfile host="app.diagrams.net" modified="2024-03-04T20:26:42.820Z" agent="Mozilla/5.0 (Windows NT 10.0; Win64; x64) AppleWebKit/537.36 (KHTML, like Gecko) Chrome/121.0.0.0 Safari/537.36" etag="DEyit--RgG9RbmRs_A44" version="24.0.1" type="device">
  <diagram name="Sayfa -1" id="n6O8i13xN8QrELq7M_We">
    <mxGraphModel dx="1100" dy="543" grid="1" gridSize="10" guides="1" tooltips="1" connect="1" arrows="1" fold="1" page="1" pageScale="1" pageWidth="827" pageHeight="1169" math="0" shadow="0">
      <root>
        <mxCell id="0" />
        <mxCell id="1" parent="0" />
        <mxCell id="ETfV87E2YICBoReForAP-1" value="başla" style="ellipse;whiteSpace=wrap;html=1;fontSize=25;" vertex="1" parent="1">
          <mxGeometry x="350" y="140" width="190" height="130" as="geometry" />
        </mxCell>
        <mxCell id="ETfV87E2YICBoReForAP-3" value="gidilecek konumu ve ulaşım yöntemini kullanıcıdan al" style="shape=parallelogram;perimeter=parallelogramPerimeter;whiteSpace=wrap;html=1;fixedSize=1;fontSize=19;" vertex="1" parent="1">
          <mxGeometry x="342.5" y="280" width="205" height="100" as="geometry" />
        </mxCell>
        <mxCell id="ETfV87E2YICBoReForAP-4" value="" style="endArrow=none;html=1;rounded=0;" edge="1" parent="1" source="ETfV87E2YICBoReForAP-3" target="ETfV87E2YICBoReForAP-1">
          <mxGeometry width="50" height="50" relative="1" as="geometry">
            <mxPoint x="420" y="300" as="sourcePoint" />
            <mxPoint x="470" y="250" as="targetPoint" />
          </mxGeometry>
        </mxCell>
        <mxCell id="ETfV87E2YICBoReForAP-5" value="kullanıcıdan alınan veriler ile en kısa yöntemi belirle" style="rounded=0;whiteSpace=wrap;html=1;fontSize=16;" vertex="1" parent="1">
          <mxGeometry x="352.5" y="410" width="185" height="120" as="geometry" />
        </mxCell>
        <mxCell id="ETfV87E2YICBoReForAP-6" value="" style="endArrow=none;html=1;rounded=0;entryX=0.462;entryY=1.019;entryDx=0;entryDy=0;entryPerimeter=0;exitX=0.446;exitY=0.021;exitDx=0;exitDy=0;exitPerimeter=0;" edge="1" parent="1" source="ETfV87E2YICBoReForAP-5" target="ETfV87E2YICBoReForAP-3">
          <mxGeometry width="50" height="50" relative="1" as="geometry">
            <mxPoint x="410" y="470" as="sourcePoint" />
            <mxPoint x="460" y="420" as="targetPoint" />
            <Array as="points">
              <mxPoint x="440" y="380" />
            </Array>
          </mxGeometry>
        </mxCell>
        <mxCell id="ETfV87E2YICBoReForAP-7" value="belirlenen rotada ilerle" style="shape=hexagon;perimeter=hexagonPerimeter2;whiteSpace=wrap;html=1;fixedSize=1;fontSize=19;" vertex="1" parent="1">
          <mxGeometry x="362.5" y="550" width="165" height="90" as="geometry" />
        </mxCell>
        <mxCell id="ETfV87E2YICBoReForAP-8" value="" style="endArrow=none;html=1;rounded=0;exitX=0.5;exitY=1;exitDx=0;exitDy=0;entryX=0.5;entryY=0;entryDx=0;entryDy=0;" edge="1" parent="1" source="ETfV87E2YICBoReForAP-5" target="ETfV87E2YICBoReForAP-7">
          <mxGeometry width="50" height="50" relative="1" as="geometry">
            <mxPoint x="410" y="670" as="sourcePoint" />
            <mxPoint x="460" y="620" as="targetPoint" />
          </mxGeometry>
        </mxCell>
        <mxCell id="ETfV87E2YICBoReForAP-9" value="belirlenen hedefe ulaşıldı mı?" style="rhombus;whiteSpace=wrap;html=1;fontSize=16;" vertex="1" parent="1">
          <mxGeometry x="372.5" y="660" width="145" height="150" as="geometry" />
        </mxCell>
        <mxCell id="ETfV87E2YICBoReForAP-10" value="" style="endArrow=none;html=1;rounded=0;entryX=0.5;entryY=1;entryDx=0;entryDy=0;exitX=0.5;exitY=0;exitDx=0;exitDy=0;" edge="1" parent="1" source="ETfV87E2YICBoReForAP-9" target="ETfV87E2YICBoReForAP-7">
          <mxGeometry width="50" height="50" relative="1" as="geometry">
            <mxPoint x="380" y="670" as="sourcePoint" />
            <mxPoint x="430" y="620" as="targetPoint" />
          </mxGeometry>
        </mxCell>
        <mxCell id="ETfV87E2YICBoReForAP-11" value="" style="endArrow=none;html=1;rounded=0;exitX=1;exitY=0.5;exitDx=0;exitDy=0;" edge="1" parent="1" source="ETfV87E2YICBoReForAP-9">
          <mxGeometry width="50" height="50" relative="1" as="geometry">
            <mxPoint x="520" y="730" as="sourcePoint" />
            <mxPoint x="640" y="730" as="targetPoint" />
          </mxGeometry>
        </mxCell>
        <mxCell id="ETfV87E2YICBoReForAP-12" value="" style="endArrow=none;html=1;rounded=0;" edge="1" parent="1">
          <mxGeometry width="50" height="50" relative="1" as="geometry">
            <mxPoint x="640" y="730" as="sourcePoint" />
            <mxPoint x="640" y="320" as="targetPoint" />
          </mxGeometry>
        </mxCell>
        <mxCell id="ETfV87E2YICBoReForAP-13" value="" style="endArrow=none;html=1;rounded=0;exitX=0.962;exitY=0.391;exitDx=0;exitDy=0;exitPerimeter=0;" edge="1" parent="1" source="ETfV87E2YICBoReForAP-14">
          <mxGeometry width="50" height="50" relative="1" as="geometry">
            <mxPoint x="380" y="310" as="sourcePoint" />
            <mxPoint x="640" y="320" as="targetPoint" />
          </mxGeometry>
        </mxCell>
        <mxCell id="ETfV87E2YICBoReForAP-15" value="" style="endArrow=none;html=1;rounded=0;exitX=0.962;exitY=0.391;exitDx=0;exitDy=0;exitPerimeter=0;" edge="1" parent="1" source="ETfV87E2YICBoReForAP-3" target="ETfV87E2YICBoReForAP-14">
          <mxGeometry width="50" height="50" relative="1" as="geometry">
            <mxPoint x="540" y="319" as="sourcePoint" />
            <mxPoint x="640" y="320" as="targetPoint" />
          </mxGeometry>
        </mxCell>
        <mxCell id="ETfV87E2YICBoReForAP-14" value="false" style="text;html=1;align=center;verticalAlign=middle;whiteSpace=wrap;rounded=0;fontSize=19;" vertex="1" parent="1">
          <mxGeometry x="560" y="300" width="60" height="30" as="geometry" />
        </mxCell>
        <mxCell id="ETfV87E2YICBoReForAP-16" value="" style="endArrow=none;html=1;rounded=0;entryX=0.5;entryY=1;entryDx=0;entryDy=0;" edge="1" parent="1" target="ETfV87E2YICBoReForAP-9">
          <mxGeometry width="50" height="50" relative="1" as="geometry">
            <mxPoint x="445" y="870" as="sourcePoint" />
            <mxPoint x="430" y="850" as="targetPoint" />
          </mxGeometry>
        </mxCell>
        <mxCell id="ETfV87E2YICBoReForAP-17" value="uygulamayı sonlandır" style="ellipse;whiteSpace=wrap;html=1;fontSize=20;" vertex="1" parent="1">
          <mxGeometry x="385" y="870" width="120" height="80" as="geometry" />
        </mxCell>
        <mxCell id="ETfV87E2YICBoReForAP-18" value="evet" style="text;html=1;align=center;verticalAlign=middle;whiteSpace=wrap;rounded=0;fontSize=18;" vertex="1" parent="1">
          <mxGeometry x="415" y="830" width="60" height="30" as="geometry" />
        </mxCell>
      </root>
    </mxGraphModel>
  </diagram>
</mxfile>
